<?xml version="1.0" encoding="UTF-8"?>
<svg xmlns="http://www.w3.org/2000/svg" width="960" height="540" viewBox="0 0 960 540" role="img">
  <defs>
    <linearGradient id="bg" x1="0" y1="0" x2="1" y2="1">
      <stop offset="0" stop-color="#F8FBFF"/>
      <stop offset="1" stop-color="#EEF6FF"/>
    </linearGradient>
    <linearGradient id="accent" x1="0" y1="0" x2="1" y2="1">
      <stop offset="0" stop-color="#22C55E"/>
      <stop offset="1" stop-color="#7DD3FC"/>
    </linearGradient>
    <filter id="shadow" x="-20%" y="-20%" width="140%" height="140%">
      <feDropShadow dx="0" dy="18" stdDeviation="18" flood-color="#0F172A" flood-opacity="0.13"/>
    </filter>
  </defs>
  <rect width="960" height="540" rx="44" fill="url(#bg)"/>
  <rect x="0" y="392" width="960" height="148" fill="#E7EEF7" opacity="0.72"/>
  <ellipse cx="480" cy="430" rx="350" ry="42" fill="#CBD5E1" opacity="0.28"/>
  <g transform="translate(480 335) scale(1.32) translate(-480 -335)">
  <rect x="136" y="398" width="688" height="42" rx="21" fill="#CBD5E1" opacity="0.92"/>
  <rect x="154" y="407" width="652" height="18" rx="9" fill="#94A3B8" opacity="0.22"/>
  <rect x="512" y="354" width="190" height="72" rx="18" fill="#DCE7F5" stroke="#AEBFD2" stroke-width="4"/><rect x="532" y="336" width="150" height="28" rx="14" fill="#BFDBFE" opacity="0.9"/>
  <g filter="url(#shadow)">
    <path d="M408 322 L356 430" fill="none" stroke="#111827" stroke-width="34" stroke-linecap="round" stroke-linejoin="round" /><path d="M408 322 L520 362" fill="none" stroke="#111827" stroke-width="34" stroke-linecap="round" stroke-linejoin="round" />
    <path d="M394 220 L408 322" fill="none" stroke="#64748B" stroke-width="46" stroke-linecap="round" stroke-linejoin="round" />
    <path d="M392 250 L336 306" fill="none" stroke="#F2B48F" stroke-width="28" stroke-linecap="round" stroke-linejoin="round" /><path d="M410 252 L470 304" fill="none" stroke="#F2B48F" stroke-width="28" stroke-linecap="round" stroke-linejoin="round" />
    <circle cx="390" cy="178" r="28" fill="#F2B48F" />
    
  </g>
  </g>
  <circle cx="78" cy="78" r="28" fill="url(#accent)" opacity="0.95"/>
  <circle cx="78" cy="78" r="45" fill="none" stroke="#22C55E" stroke-width="4" opacity="0.18"/>
</svg>