<?xml version="1.0" encoding="UTF-8"?>
<svg xmlns="http://www.w3.org/2000/svg" width="960" height="540" viewBox="0 0 960 540" role="img">
  <defs>
    <linearGradient id="bg" x1="0" y1="0" x2="1" y2="1">
      <stop offset="0" stop-color="#F8FBFF"/>
      <stop offset="1" stop-color="#EEF6FF"/>
    </linearGradient>
    <linearGradient id="accent" x1="0" y1="0" x2="1" y2="1">
      <stop offset="0" stop-color="#0F766E"/>
      <stop offset="1" stop-color="#7DD3FC"/>
    </linearGradient>
    <filter id="shadow" x="-20%" y="-20%" width="140%" height="140%">
      <feDropShadow dx="0" dy="18" stdDeviation="18" flood-color="#0F172A" flood-opacity="0.13"/>
    </filter>
  </defs>
  <rect width="960" height="540" rx="44" fill="url(#bg)"/>
  <rect x="0" y="392" width="960" height="148" fill="#E7EEF7" opacity="0.72"/>
  <ellipse cx="480" cy="430" rx="350" ry="42" fill="#CBD5E1" opacity="0.28"/>
  <g transform="translate(480 335) scale(1.32) translate(-480 -335)">
  <rect x="136" y="398" width="688" height="42" rx="21" fill="#CBD5E1" opacity="0.92"/>
  <rect x="154" y="407" width="652" height="18" rx="9" fill="#94A3B8" opacity="0.22"/>
  <rect x="800" y="100" width="14" height="340" rx="7" fill="#BFDBFE" opacity="0.72"/><rect x="814" y="100" width="24" height="340" fill="#DBEAFE" opacity="0.4"/>
  <g filter="url(#shadow)">
    <path d="M574 344 L518 430" fill="none" stroke="#111827" stroke-width="34" stroke-linecap="round" stroke-linejoin="round" /><path d="M574 344 L648 430" fill="none" stroke="#111827" stroke-width="34" stroke-linecap="round" stroke-linejoin="round" />
    <path d="M474 232 L574 344" fill="none" stroke="#64748B" stroke-width="46" stroke-linecap="round" stroke-linejoin="round" />
    <path d="M492 246 L790 246" fill="none" stroke="#F2B48F" stroke-width="28" stroke-linecap="round" stroke-linejoin="round" /><path d="M514 274 L790 292" fill="none" stroke="#F2B48F" stroke-width="28" stroke-linecap="round" stroke-linejoin="round" />
    <circle cx="458" cy="188" r="28" fill="#F2B48F" />
    
  </g>
  </g>
  <circle cx="78" cy="78" r="28" fill="url(#accent)" opacity="0.95"/>
  <circle cx="78" cy="78" r="45" fill="none" stroke="#0F766E" stroke-width="4" opacity="0.18"/>
</svg>