<svg xmlns="http://www.w3.org/2000/svg" viewBox="0 0 1024 1024" role="img" aria-labelledby="title desc">
  <title id="title">护腰训练打卡图标</title>
  <desc id="desc">绿色渐变背景，白色圆环内有跑步人物、进度柱和完成勾。</desc>
  <defs>
    <linearGradient id="bg" x1="92" y1="78" x2="930" y2="944" gradientUnits="userSpaceOnUse">
      <stop offset="0" stop-color="#02D978"/>
      <stop offset=".44" stop-color="#04A96D"/>
      <stop offset="1" stop-color="#047857"/>
    </linearGradient>
    <radialGradient id="topGlow" cx="19%" cy="0%" r="62%">
      <stop offset="0" stop-color="#4ADE80" stop-opacity=".9"/>
      <stop offset=".44" stop-color="#10B981" stop-opacity=".22"/>
      <stop offset="1" stop-color="#065F46" stop-opacity="0"/>
    </radialGradient>
    <radialGradient id="rightGlow" cx="85%" cy="23%" r="58%">
      <stop offset="0" stop-color="#22D3EE" stop-opacity=".26"/>
      <stop offset="1" stop-color="#064E3B" stop-opacity="0"/>
    </radialGradient>
    <linearGradient id="check" x1="696" y1="276" x2="930" y2="82" gradientUnits="userSpaceOnUse">
      <stop offset="0" stop-color="#80F43D"/>
      <stop offset="1" stop-color="#E8FF1F"/>
    </linearGradient>
    <linearGradient id="bars" x1="520" y1="794" x2="744" y2="620" gradientUnits="userSpaceOnUse">
      <stop offset="0" stop-color="#42E3D0"/>
      <stop offset=".58" stop-color="#7CF237"/>
      <stop offset="1" stop-color="#E1FF22"/>
    </linearGradient>
    <filter id="shadow" x="-20%" y="-20%" width="140%" height="140%">
      <feDropShadow dx="0" dy="14" stdDeviation="18" flood-color="#064E3B" flood-opacity=".32"/>
    </filter>
    <filter id="soft" x="-20%" y="-20%" width="140%" height="140%">
      <feDropShadow dx="0" dy="9" stdDeviation="10" flood-color="#064E3B" flood-opacity=".22"/>
    </filter>
  </defs>

  <rect width="1024" height="1024" fill="url(#bg)"/>
  <rect width="1024" height="1024" fill="url(#topGlow)"/>
  <rect width="1024" height="1024" fill="url(#rightGlow)"/>

  <g filter="url(#shadow)" fill="none" stroke="#FFFFFF" stroke-linecap="round">
    <path d="M664 156C566 108 452 104 350 146C196 209 90 360 90 533C90 761 275 946 503 946C632 946 748 887 824 794C886 718 920 622 916 523" stroke-width="68"/>
    <path d="M861 345C894 396 914 456 920 520" stroke-width="68"/>
  </g>

  <g filter="url(#soft)">
    <path d="M700 226L779 305L934 130" fill="none" stroke="url(#check)" stroke-width="84" stroke-linecap="round" stroke-linejoin="round"/>
  </g>

  <g filter="url(#shadow)" fill="#FFFFFF">
    <circle cx="586" cy="318" r="53"/>
    <path d="M415 418C438 385 462 354 493 354H558C603 354 640 383 666 422L710 489L772 463C796 453 823 464 833 488C843 512 832 539 808 549L716 588C690 599 660 590 644 566L603 505L562 578L650 637C681 658 691 698 673 730L603 856C590 881 559 890 534 876C510 862 501 832 514 807L571 704L488 650C445 622 432 566 458 522L507 439H455L393 518C377 538 347 542 326 526C306 510 303 479 319 459L415 418Z"/>
    <path d="M418 545L374 672C369 686 360 698 348 706L244 778C221 794 190 788 174 766C158 744 164 713 186 697L277 634L326 500C335 475 363 462 388 471C413 480 426 520 418 545Z"/>
  </g>

  <g fill="url(#bars)" filter="url(#soft)">
    <rect x="522" y="764" width="42" height="84" rx="21" opacity=".72"/>
    <rect x="584" y="724" width="42" height="124" rx="21" opacity=".82"/>
    <rect x="646" y="682" width="42" height="166" rx="21" opacity=".94"/>
    <rect x="708" y="634" width="42" height="214" rx="21"/>
  </g>
</svg>
